<svg version="1.1" xmlns="http://www.w3.org/2000/svg" xmlns:xlink="http://www.w3.org/1999/xlink" width="185.20277" height="135.92071" viewBox="0,0,185.20277,135.92071"><g transform="translate(-147.89861,-112.84873)"><g data-paper-data="{&quot;isPaintingLayer&quot;:true}" fill-rule="nonzero" stroke-linejoin="miter" stroke-miterlimit="10" stroke-dasharray="" stroke-dashoffset="0" style="mix-blend-mode: normal"><path d="" fill="#312748" stroke="#000000" stroke-width="0" stroke-linecap="butt"/><path d="M241.13669,169.00148l-49.82909,33.36015" fill="none" stroke="#000000" stroke-width="2" stroke-linecap="round"/><path d="M147.94433,159.70618c0,-7.12289 5.77424,-12.89712 12.89712,-12.89712c7.12289,0 12.89712,5.77424 12.89712,12.89712c0,7.12289 -5.77424,12.89712 -12.89712,12.89712c-7.12289,0 -12.89712,-5.77424 -12.89712,-12.89712z" fill="#ffaaaa" stroke="none" stroke-width="2" stroke-linecap="butt"/><path d="M202.76452,234.99159l-49.12305,-65.78331l17.55143,-13.05117l49.12306,65.78332l4.85439,24.86454z" fill="#ffa900" stroke="none" stroke-width="0" stroke-linecap="butt"/><path d="M171.19291,156.1571l49.12305,65.78332l4.86275,25.21084c-1.54412,-1.732 -61.78284,-83.49907 -62.89025,-84.37285z" fill="#ff8807" stroke="none" stroke-width="0" stroke-linecap="butt"/><path d="M202.76452,234.99159l-6.31806,-8.27115l-1.55969,-8.98803l9.12224,2.49195l0.10389,-9.84789l7.81658,0.33315l8.38647,11.23079l4.85439,24.86454z" fill="#ffd177" stroke="none" stroke-width="0" stroke-linecap="butt"/><path d="M252.84951,161.33477l-12.99353,-32.81872l5.06346,-2.00472l12.99353,32.81872z" fill="#312748" stroke="none" stroke-width="0" stroke-linecap="butt"/><path d="M259.86986,207.06602l-16.94271,39.33129l-5.02807,-10.06694l5.04247,9.83283" fill="none" stroke="#000000" stroke-width="2" stroke-linecap="round"/><path d="M247.19968,197.09265l-30.97754,-76.03231l20.27204,-8.21161l30.97754,76.03231l-1.56241,25.28576z" fill="#60596f" stroke="none" stroke-width="0" stroke-linecap="butt"/><path d="M288.83171,184.88935l9.63452,2.23993l-9.48493,-2.66541c0,0 0.52987,23.10093 -5.32098,27.1006c-7.89055,5.39402 -16.87362,-9.66142 -16.87362,-9.66142" fill="none" stroke="#000000" stroke-width="2" stroke-linecap="round"/><path d="M265.90931,214.1668l-8.33202,-7.60368c3.04357,-1.50229 6.06091,-3.05921 9.08397,-4.56579z" fill="#312748" stroke="none" stroke-width="0" stroke-linecap="butt"/><path d="M249.67468,171.27123c0,0 -4.95166,-6.22238 -2.71381,-8.48067c0.96149,-0.97027 1.63726,-0.42996 2.11198,-0.16165c1.04275,0.58936 1.11546,2.46132 1.11546,2.46132c0.75607,14.38345 -9.47985,11.90024 -9.47985,11.90024" fill="none" stroke="#000000" stroke-width="2" stroke-linecap="round"/><path d="M236.58777,158.28562l-2.22788,-5.46844l2.12662,5.16464" fill="none" stroke="#000000" stroke-width="2" stroke-linecap="round"/><path d="M225.17036,246.80496l-9.97806,-5.26089c2.56727,-2.22021 5.09541,-4.48666 7.64175,-6.70587z" fill="#000000" stroke="#000000" stroke-width="2" stroke-linecap="butt"/><path d="M157.3633,179.69925l-9.46469,-13.53595l22.21484,-17.08669l9.46469,13.53595z" fill="#dfdfdf" stroke="none" stroke-width="2" stroke-linecap="butt"/><path d="M332.10139,232.57814c0,0 -42.3555,-0.71753 -51.09594,3.1671c-8.74044,3.88464 71.21076,7.18874 25.7591,8.44561c-32.05201,0.88633 -82.13355,2.1114 -82.13355,2.1114" fill="none" stroke="#000000" stroke-width="2" stroke-linecap="round"/><path d="M201.40559,209.96268l50.04023,-32.93787" fill="none" stroke="#000000" stroke-width="2" stroke-linecap="round"/></g></g></svg>